# xmcd CD database file
#
# Track frame offsets:
#	150
#	35907
#	79271
#	99658
#	119700
#	145659
#	161528
#	181835
#	220518
#	261583
#	276724
#	292851
#
# Disc length: 4216 seconds
#
# Revision: 0
# Processed by: cddbd v1.5.2PL0 Copyright (c) Steve Scherf et al.
# Submitted via: CDex 1.70beta2
#
DISCID=ba10760c
DTITLE=Miles Davis - Mellow Miles
DYEAR=1991
DGENRE=Jazz
TTITLE0=Miles
TTITLE1=Summertime
TTITLE2=So What
TTITLE3=Time After Time
TTITLE4=Miles Ahead
TTITLE5=Freddie Freeloader
TTITLE6=Bye Bye Blackbird
TTITLE7=Pfrancing
TTITLE8=Round Midnight
TTITLE9=It Ain't Necessarily So
TTITLE10=Human Nature
TTITLE11=New Rhumba
EXTD=YEAR: 1991
EXTT0=
EXTT1=
EXTT2=
EXTT3=
EXTT4=
EXTT5=
EXTT6=
EXTT7=
EXTT8=
EXTT9=
EXTT10=
EXTT11=
PLAYORDER=
